<mxfile host="Electron" modified="2023-05-08T03:50:41.950Z" agent="Mozilla/5.0 (Windows NT 10.0; Win64; x64) AppleWebKit/537.36 (KHTML, like Gecko) draw.io/21.2.1 Chrome/112.0.5615.87 Electron/24.1.2 Safari/537.36" etag="4pdKDFfN34qlgThEF4fw" version="21.2.1" type="device">
  <diagram name="Page-1" id="k8EfoCy7SmcwWmOiNj1v">
    <mxGraphModel dx="1020" dy="1596" grid="1" gridSize="10" guides="1" tooltips="1" connect="1" arrows="1" fold="1" page="1" pageScale="1" pageWidth="850" pageHeight="1100" math="0" shadow="0">
      <root>
        <mxCell id="0" />
        <mxCell id="1" parent="0" />
        <UserObject label="" tooltip="&gt;&#xa;" id="KLKRiOaOqkj03--vke8t-1">
          <mxCell style="whiteSpace=wrap;html=1;aspect=fixed;strokeColor=#000000;" parent="1" vertex="1">
            <mxGeometry x="310" y="-195" width="870" height="870" as="geometry" />
          </mxCell>
        </UserObject>
        <mxCell id="KLKRiOaOqkj03--vke8t-2" value="&lt;b&gt;DRUG DISPENSING TOOL&lt;br&gt;&lt;br&gt;&lt;/b&gt;" style="text;html=1;strokeColor=none;fillColor=none;align=center;verticalAlign=middle;whiteSpace=wrap;rounded=0;" parent="1" vertex="1">
          <mxGeometry x="600" y="-190" width="230" height="50" as="geometry" />
        </mxCell>
        <mxCell id="KLKRiOaOqkj03--vke8t-10" value="Enter SSN" style="ellipse;whiteSpace=wrap;html=1;" parent="1" vertex="1">
          <mxGeometry x="500" y="35" width="120" height="70" as="geometry" />
        </mxCell>
        <mxCell id="KLKRiOaOqkj03--vke8t-12" value="display patient login error" style="ellipse;whiteSpace=wrap;html=1;" parent="1" vertex="1">
          <mxGeometry x="800" y="1" width="120" height="80" as="geometry" />
        </mxCell>
        <mxCell id="KLKRiOaOqkj03--vke8t-13" value="Verify SSN" style="ellipse;whiteSpace=wrap;html=1;" parent="1" vertex="1">
          <mxGeometry x="390" y="-85" width="120" height="80" as="geometry" />
        </mxCell>
        <mxCell id="KLKRiOaOqkj03--vke8t-14" value="Enter prescription ID" style="ellipse;whiteSpace=wrap;html=1;" parent="1" vertex="1">
          <mxGeometry x="350" y="120" width="120" height="80" as="geometry" />
        </mxCell>
        <mxCell id="KLKRiOaOqkj03--vke8t-15" value="display prescription idefication error" style="ellipse;whiteSpace=wrap;html=1;" parent="1" vertex="1">
          <mxGeometry x="600" y="120" width="120" height="80" as="geometry" />
        </mxCell>
        <mxCell id="KLKRiOaOqkj03--vke8t-16" value="show dosage&amp;nbsp;" style="ellipse;whiteSpace=wrap;html=1;" parent="1" vertex="1">
          <mxGeometry x="330" y="260" width="120" height="80" as="geometry" />
        </mxCell>
        <mxCell id="KLKRiOaOqkj03--vke8t-17" value="give prescription" style="ellipse;whiteSpace=wrap;html=1;" parent="1" vertex="1">
          <mxGeometry x="330" y="355" width="120" height="80" as="geometry" />
        </mxCell>
        <mxCell id="KLKRiOaOqkj03--vke8t-26" value="buy drugs" style="ellipse;whiteSpace=wrap;html=1;" parent="1" vertex="1">
          <mxGeometry x="570" y="330" width="120" height="80" as="geometry" />
        </mxCell>
        <mxCell id="KLKRiOaOqkj03--vke8t-28" value="manufacture drugs" style="ellipse;whiteSpace=wrap;html=1;" parent="1" vertex="1">
          <mxGeometry x="750" y="370" width="120" height="80" as="geometry" />
        </mxCell>
        <mxCell id="KLKRiOaOqkj03--vke8t-29" value="contract drugs&amp;nbsp;" style="ellipse;whiteSpace=wrap;html=1;" parent="1" vertex="1">
          <mxGeometry x="720" y="240" width="120" height="80" as="geometry" />
        </mxCell>
        <mxCell id="KLKRiOaOqkj03--vke8t-30" value="register drug" style="ellipse;whiteSpace=wrap;html=1;" parent="1" vertex="1">
          <mxGeometry x="920" y="330" width="120" height="80" as="geometry" />
        </mxCell>
        <mxCell id="KLKRiOaOqkj03--vke8t-31" value="manages contract&lt;br&gt;" style="ellipse;whiteSpace=wrap;html=1;" parent="1" vertex="1">
          <mxGeometry x="860" y="240" width="120" height="80" as="geometry" />
        </mxCell>
        <mxCell id="KLKRiOaOqkj03--vke8t-33" value="show price" style="ellipse;whiteSpace=wrap;html=1;" parent="1" vertex="1">
          <mxGeometry x="450" y="435" width="120" height="80" as="geometry" />
        </mxCell>
        <mxCell id="KLKRiOaOqkj03--vke8t-34" value="sells&amp;nbsp; drugs" style="ellipse;whiteSpace=wrap;html=1;" parent="1" vertex="1">
          <mxGeometry x="660" y="460" width="120" height="80" as="geometry" />
        </mxCell>
        <mxCell id="KLKRiOaOqkj03--vke8t-35" value="use insurance&lt;br&gt;" style="ellipse;whiteSpace=wrap;html=1;" parent="1" vertex="1">
          <mxGeometry x="590" y="210" width="120" height="80" as="geometry" />
        </mxCell>
        <mxCell id="KLKRiOaOqkj03--vke8t-36" value="manage inventory" style="ellipse;whiteSpace=wrap;html=1;" parent="1" vertex="1">
          <mxGeometry x="1040" y="420" width="120" height="80" as="geometry" />
        </mxCell>
        <mxCell id="KLKRiOaOqkj03--vke8t-37" value="view prescription history" style="ellipse;whiteSpace=wrap;html=1;" parent="1" vertex="1">
          <mxGeometry x="460" y="250" width="120" height="80" as="geometry" />
        </mxCell>
        <mxCell id="KLKRiOaOqkj03--vke8t-38" value="manage company info" style="ellipse;whiteSpace=wrap;html=1;" parent="1" vertex="1">
          <mxGeometry x="740" y="550" width="120" height="80" as="geometry" />
        </mxCell>
        <mxCell id="KLKRiOaOqkj03--vke8t-40" value="manage&amp;nbsp; pharmacy info" style="ellipse;whiteSpace=wrap;html=1;" parent="1" vertex="1">
          <mxGeometry x="850" y="460" width="120" height="80" as="geometry" />
        </mxCell>
        <mxCell id="KLKRiOaOqkj03--vke8t-41" value="manage doctor info" style="ellipse;whiteSpace=wrap;html=1;" parent="1" vertex="1">
          <mxGeometry x="750" y="120" width="120" height="80" as="geometry" />
        </mxCell>
        <mxCell id="KLKRiOaOqkj03--vke8t-42" value="manage supervisor info" style="ellipse;whiteSpace=wrap;html=1;" parent="1" vertex="1">
          <mxGeometry x="900" y="140" width="120" height="80" as="geometry" />
        </mxCell>
        <mxCell id="KLKRiOaOqkj03--vke8t-43" value="refill drug" style="ellipse;whiteSpace=wrap;html=1;" parent="1" vertex="1">
          <mxGeometry x="1010" y="570" width="120" height="80" as="geometry" />
        </mxCell>
        <mxCell id="KLKRiOaOqkj03--vke8t-46" value="PATIENT" style="shape=umlActor;verticalLabelPosition=bottom;verticalAlign=top;html=1;outlineConnect=0;" parent="1" vertex="1">
          <mxGeometry x="190" y="-20" width="80" height="150" as="geometry" />
        </mxCell>
        <mxCell id="KLKRiOaOqkj03--vke8t-47" value="DOCTOR" style="shape=umlActor;verticalLabelPosition=bottom;verticalAlign=top;html=1;outlineConnect=0;" parent="1" vertex="1">
          <mxGeometry x="190" y="200" width="80" height="150" as="geometry" />
        </mxCell>
        <mxCell id="KLKRiOaOqkj03--vke8t-50" value="PHARMACEUTICAL&lt;br&gt;&amp;nbsp;COMPANY" style="shape=umlActor;verticalLabelPosition=bottom;verticalAlign=top;html=1;outlineConnect=0;" parent="1" vertex="1">
          <mxGeometry x="190" y="400" width="80" height="150" as="geometry" />
        </mxCell>
        <mxCell id="KLKRiOaOqkj03--vke8t-51" value="PHARMACY" style="shape=umlActor;verticalLabelPosition=bottom;verticalAlign=top;html=1;outlineConnect=0;" parent="1" vertex="1">
          <mxGeometry x="180" y="590" width="80" height="150" as="geometry" />
        </mxCell>
        <mxCell id="KLKRiOaOqkj03--vke8t-55" value="PHARAMCIST" style="shape=umlActor;verticalLabelPosition=bottom;verticalAlign=top;html=1;outlineConnect=0;" parent="1" vertex="1">
          <mxGeometry x="1225" y="-40" width="50" height="110" as="geometry" />
        </mxCell>
        <mxCell id="KLKRiOaOqkj03--vke8t-58" value="SUPERVISOR" style="shape=umlActor;verticalLabelPosition=bottom;verticalAlign=top;html=1;outlineConnect=0;" parent="1" vertex="1">
          <mxGeometry x="1240" y="140" width="50" height="110" as="geometry" />
        </mxCell>
        <mxCell id="KLKRiOaOqkj03--vke8t-72" value="" style="endArrow=none;dashed=1;html=1;rounded=0;strokeColor=#000000;entryX=0.222;entryY=0.933;entryDx=0;entryDy=0;entryPerimeter=0;exitX=0.306;exitY=0.052;exitDx=0;exitDy=0;exitPerimeter=0;" parent="1" source="KLKRiOaOqkj03--vke8t-10" target="KLKRiOaOqkj03--vke8t-13" edge="1">
          <mxGeometry width="50" height="50" relative="1" as="geometry">
            <mxPoint x="450" y="50" as="sourcePoint" />
            <mxPoint x="500" as="targetPoint" />
          </mxGeometry>
        </mxCell>
        <mxCell id="KLKRiOaOqkj03--vke8t-73" value="&amp;lt;&amp;lt;include&amp;gt;&amp;gt;" style="text;html=1;strokeColor=none;fillColor=none;align=center;verticalAlign=middle;whiteSpace=wrap;rounded=0;" parent="1" vertex="1">
          <mxGeometry x="440" y="10" width="60" height="30" as="geometry" />
        </mxCell>
        <mxCell id="KLKRiOaOqkj03--vke8t-74" style="edgeStyle=orthogonalEdgeStyle;rounded=0;orthogonalLoop=1;jettySize=auto;html=1;exitX=0.5;exitY=1;exitDx=0;exitDy=0;" parent="1" source="KLKRiOaOqkj03--vke8t-73" target="KLKRiOaOqkj03--vke8t-73" edge="1">
          <mxGeometry relative="1" as="geometry" />
        </mxCell>
        <mxCell id="KLKRiOaOqkj03--vke8t-75" value="" style="endArrow=none;dashed=1;html=1;rounded=0;exitX=1;exitY=0.657;exitDx=0;exitDy=0;exitPerimeter=0;entryX=0;entryY=1;entryDx=0;entryDy=0;" parent="1" source="KLKRiOaOqkj03--vke8t-10" target="KLKRiOaOqkj03--vke8t-12" edge="1">
          <mxGeometry width="50" height="50" relative="1" as="geometry">
            <mxPoint x="500" y="200" as="sourcePoint" />
            <mxPoint x="550" y="150" as="targetPoint" />
          </mxGeometry>
        </mxCell>
        <mxCell id="KLKRiOaOqkj03--vke8t-76" value="&amp;lt;&amp;lt;extend&amp;gt;&amp;gt;" style="edgeLabel;html=1;align=center;verticalAlign=middle;resizable=0;points=[];" parent="KLKRiOaOqkj03--vke8t-75" vertex="1" connectable="0">
          <mxGeometry x="-0.2946" y="2" relative="1" as="geometry">
            <mxPoint as="offset" />
          </mxGeometry>
        </mxCell>
        <mxCell id="KLKRiOaOqkj03--vke8t-78" value="" style="endArrow=none;dashed=1;html=1;rounded=0;" parent="1" source="KLKRiOaOqkj03--vke8t-16" target="KLKRiOaOqkj03--vke8t-14" edge="1">
          <mxGeometry width="50" height="50" relative="1" as="geometry">
            <mxPoint x="420" y="240" as="sourcePoint" />
            <mxPoint x="470" y="190" as="targetPoint" />
          </mxGeometry>
        </mxCell>
        <mxCell id="KLKRiOaOqkj03--vke8t-86" value="&amp;lt;&amp;lt;include&amp;gt;&amp;gt;" style="edgeLabel;html=1;align=center;verticalAlign=middle;resizable=0;points=[];" parent="KLKRiOaOqkj03--vke8t-78" vertex="1" connectable="0">
          <mxGeometry x="-0.4899" y="-2" relative="1" as="geometry">
            <mxPoint x="-1" as="offset" />
          </mxGeometry>
        </mxCell>
        <mxCell id="KLKRiOaOqkj03--vke8t-79" value="" style="endArrow=none;dashed=1;html=1;rounded=0;entryX=0.5;entryY=0;entryDx=0;entryDy=0;exitX=0.944;exitY=0.767;exitDx=0;exitDy=0;exitPerimeter=0;" parent="1" source="KLKRiOaOqkj03--vke8t-14" target="KLKRiOaOqkj03--vke8t-37" edge="1">
          <mxGeometry width="50" height="50" relative="1" as="geometry">
            <mxPoint x="500" y="200" as="sourcePoint" />
            <mxPoint x="550" y="150" as="targetPoint" />
          </mxGeometry>
        </mxCell>
        <mxCell id="KLKRiOaOqkj03--vke8t-85" value="&amp;lt;&amp;lt;include&amp;gt;&amp;gt;" style="edgeLabel;html=1;align=center;verticalAlign=middle;resizable=0;points=[];" parent="KLKRiOaOqkj03--vke8t-79" vertex="1" connectable="0">
          <mxGeometry x="-0.4046" y="3" relative="1" as="geometry">
            <mxPoint as="offset" />
          </mxGeometry>
        </mxCell>
        <mxCell id="KLKRiOaOqkj03--vke8t-83" value="" style="endArrow=none;dashed=1;html=1;rounded=0;entryX=0;entryY=0.5;entryDx=0;entryDy=0;exitX=0.989;exitY=0.608;exitDx=0;exitDy=0;exitPerimeter=0;" parent="1" source="KLKRiOaOqkj03--vke8t-14" target="KLKRiOaOqkj03--vke8t-15" edge="1">
          <mxGeometry width="50" height="50" relative="1" as="geometry">
            <mxPoint x="500" y="200" as="sourcePoint" />
            <mxPoint x="550" y="150" as="targetPoint" />
          </mxGeometry>
        </mxCell>
        <mxCell id="KLKRiOaOqkj03--vke8t-84" value="&amp;lt;&amp;lt;extend&amp;gt;&amp;gt;" style="edgeLabel;html=1;align=center;verticalAlign=middle;resizable=0;points=[];" parent="KLKRiOaOqkj03--vke8t-83" vertex="1" connectable="0">
          <mxGeometry x="-0.366" y="-1" relative="1" as="geometry">
            <mxPoint x="3" y="-14" as="offset" />
          </mxGeometry>
        </mxCell>
        <mxCell id="KLKRiOaOqkj03--vke8t-87" value="" style="endArrow=none;dashed=1;html=1;rounded=0;entryX=0.094;entryY=0.767;entryDx=0;entryDy=0;entryPerimeter=0;exitX=1;exitY=0;exitDx=0;exitDy=0;" parent="1" source="KLKRiOaOqkj03--vke8t-33" target="KLKRiOaOqkj03--vke8t-26" edge="1">
          <mxGeometry width="50" height="50" relative="1" as="geometry">
            <mxPoint x="550" y="450" as="sourcePoint" />
            <mxPoint x="600" y="400" as="targetPoint" />
          </mxGeometry>
        </mxCell>
        <mxCell id="KLKRiOaOqkj03--vke8t-88" value="&amp;lt;&amp;lt;include&amp;gt;&amp;gt;" style="edgeLabel;html=1;align=center;verticalAlign=middle;resizable=0;points=[];" parent="KLKRiOaOqkj03--vke8t-87" vertex="1" connectable="0">
          <mxGeometry x="-0.416" y="-3" relative="1" as="geometry">
            <mxPoint x="-26" y="-16" as="offset" />
          </mxGeometry>
        </mxCell>
        <mxCell id="KLKRiOaOqkj03--vke8t-90" value="" style="endArrow=none;dashed=1;html=1;rounded=0;exitX=0.967;exitY=0.283;exitDx=0;exitDy=0;exitPerimeter=0;entryX=0.778;entryY=0.917;entryDx=0;entryDy=0;entryPerimeter=0;" parent="1" source="KLKRiOaOqkj03--vke8t-17" target="KLKRiOaOqkj03--vke8t-14" edge="1">
          <mxGeometry width="50" height="50" relative="1" as="geometry">
            <mxPoint x="500" y="390" as="sourcePoint" />
            <mxPoint x="550" y="340" as="targetPoint" />
            <Array as="points">
              <mxPoint x="460" y="330" />
            </Array>
          </mxGeometry>
        </mxCell>
        <mxCell id="KLKRiOaOqkj03--vke8t-91" value="&amp;lt;&amp;lt;include&amp;gt;&amp;gt;" style="edgeLabel;html=1;align=center;verticalAlign=middle;resizable=0;points=[];" parent="KLKRiOaOqkj03--vke8t-90" vertex="1" connectable="0">
          <mxGeometry x="-0.545" y="1" relative="1" as="geometry">
            <mxPoint as="offset" />
          </mxGeometry>
        </mxCell>
        <mxCell id="KLKRiOaOqkj03--vke8t-95" value="" style="endArrow=none;dashed=1;html=1;rounded=0;exitX=0.989;exitY=0.65;exitDx=0;exitDy=0;exitPerimeter=0;" parent="1" source="KLKRiOaOqkj03--vke8t-36" target="KLKRiOaOqkj03--vke8t-43" edge="1">
          <mxGeometry width="50" height="50" relative="1" as="geometry">
            <mxPoint x="580" y="680" as="sourcePoint" />
            <mxPoint x="630" y="630" as="targetPoint" />
          </mxGeometry>
        </mxCell>
        <mxCell id="KLKRiOaOqkj03--vke8t-96" value="&amp;lt;&amp;lt;include&amp;gt;&amp;gt;" style="edgeLabel;html=1;align=center;verticalAlign=middle;resizable=0;points=[];" parent="KLKRiOaOqkj03--vke8t-95" vertex="1" connectable="0">
          <mxGeometry x="-0.3754" y="-1" relative="1" as="geometry">
            <mxPoint x="-38" y="14" as="offset" />
          </mxGeometry>
        </mxCell>
        <mxCell id="KLKRiOaOqkj03--vke8t-97" value="" style="endArrow=none;html=1;rounded=0;exitX=1;exitY=0.3333333333333333;exitDx=0;exitDy=0;exitPerimeter=0;entryX=0.044;entryY=0.692;entryDx=0;entryDy=0;entryPerimeter=0;" parent="1" source="KLKRiOaOqkj03--vke8t-51" target="KLKRiOaOqkj03--vke8t-43" edge="1">
          <mxGeometry width="50" height="50" relative="1" as="geometry">
            <mxPoint x="580" y="680" as="sourcePoint" />
            <mxPoint x="630" y="630" as="targetPoint" />
            <Array as="points">
              <mxPoint x="480" y="660" />
            </Array>
          </mxGeometry>
        </mxCell>
        <mxCell id="KLKRiOaOqkj03--vke8t-100" value="" style="endArrow=none;html=1;rounded=0;entryX=0.211;entryY=0.105;entryDx=0;entryDy=0;entryPerimeter=0;" parent="1" target="KLKRiOaOqkj03--vke8t-10" edge="1">
          <mxGeometry width="50" height="50" relative="1" as="geometry">
            <mxPoint x="270" y="30" as="sourcePoint" />
            <mxPoint x="320" y="-20" as="targetPoint" />
          </mxGeometry>
        </mxCell>
        <mxCell id="KLKRiOaOqkj03--vke8t-102" value="" style="endArrow=none;html=1;rounded=0;entryX=0.283;entryY=0.033;entryDx=0;entryDy=0;entryPerimeter=0;" parent="1" edge="1">
          <mxGeometry width="50" height="50" relative="1" as="geometry">
            <mxPoint x="270" y="31" as="sourcePoint" />
            <mxPoint x="383.96000000000004" y="123.6400000000001" as="targetPoint" />
          </mxGeometry>
        </mxCell>
        <mxCell id="KLKRiOaOqkj03--vke8t-105" value="" style="endArrow=none;html=1;rounded=0;exitX=0;exitY=0;exitDx=0;exitDy=0;" parent="1" source="KLKRiOaOqkj03--vke8t-37" edge="1">
          <mxGeometry width="50" height="50" relative="1" as="geometry">
            <mxPoint x="220" y="80" as="sourcePoint" />
            <mxPoint x="270" y="30" as="targetPoint" />
            <Array as="points">
              <mxPoint x="350" y="210" />
            </Array>
          </mxGeometry>
        </mxCell>
        <mxCell id="KLKRiOaOqkj03--vke8t-106" value="" style="endArrow=none;html=1;rounded=0;" parent="1" target="KLKRiOaOqkj03--vke8t-35" edge="1">
          <mxGeometry width="50" height="50" relative="1" as="geometry">
            <mxPoint x="270" y="30" as="sourcePoint" />
            <mxPoint x="350" y="10" as="targetPoint" />
            <Array as="points">
              <mxPoint x="390" y="110" />
              <mxPoint x="470" y="110" />
            </Array>
          </mxGeometry>
        </mxCell>
        <mxCell id="KLKRiOaOqkj03--vke8t-109" value="" style="endArrow=none;html=1;rounded=0;exitX=0.361;exitY=0.025;exitDx=0;exitDy=0;exitPerimeter=0;entryX=1;entryY=0.3333333333333333;entryDx=0;entryDy=0;entryPerimeter=0;" parent="1" source="KLKRiOaOqkj03--vke8t-26" edge="1">
          <mxGeometry width="50" height="50" relative="1" as="geometry">
            <mxPoint x="619.96" y="338.3599999999999" as="sourcePoint" />
            <mxPoint x="270" y="31" as="targetPoint" />
            <Array as="points">
              <mxPoint x="460" y="61" />
            </Array>
          </mxGeometry>
        </mxCell>
        <mxCell id="KLKRiOaOqkj03--vke8t-110" value="" style="endArrow=none;html=1;rounded=0;entryX=0;entryY=1;entryDx=0;entryDy=0;" parent="1" target="KLKRiOaOqkj03--vke8t-14" edge="1">
          <mxGeometry width="50" height="50" relative="1" as="geometry">
            <mxPoint x="270" y="250" as="sourcePoint" />
            <mxPoint x="330" y="210" as="targetPoint" />
          </mxGeometry>
        </mxCell>
        <mxCell id="KLKRiOaOqkj03--vke8t-111" value="" style="endArrow=none;html=1;rounded=0;entryX=0;entryY=0;entryDx=0;entryDy=0;" parent="1" target="KLKRiOaOqkj03--vke8t-37" edge="1">
          <mxGeometry width="50" height="50" relative="1" as="geometry">
            <mxPoint x="270" y="250" as="sourcePoint" />
            <mxPoint x="470" y="260" as="targetPoint" />
            <Array as="points">
              <mxPoint x="360" y="230" />
            </Array>
          </mxGeometry>
        </mxCell>
        <mxCell id="KLKRiOaOqkj03--vke8t-112" value="" style="endArrow=none;html=1;rounded=0;exitX=0;exitY=0;exitDx=0;exitDy=0;" parent="1" source="KLKRiOaOqkj03--vke8t-17" edge="1">
          <mxGeometry width="50" height="50" relative="1" as="geometry">
            <mxPoint x="220" y="300" as="sourcePoint" />
            <mxPoint x="270" y="250" as="targetPoint" />
          </mxGeometry>
        </mxCell>
        <mxCell id="KLKRiOaOqkj03--vke8t-113" value="" style="endArrow=none;html=1;rounded=0;entryX=0;entryY=0.5;entryDx=0;entryDy=0;" parent="1" edge="1">
          <mxGeometry width="50" height="50" relative="1" as="geometry">
            <mxPoint x="260" y="639" as="sourcePoint" />
            <mxPoint x="660" y="499" as="targetPoint" />
            <Array as="points">
              <mxPoint x="390" y="519" />
              <mxPoint x="530" y="539" />
            </Array>
          </mxGeometry>
        </mxCell>
        <mxCell id="KLKRiOaOqkj03--vke8t-114" value="" style="endArrow=none;html=1;rounded=0;" parent="1" target="KLKRiOaOqkj03--vke8t-38" edge="1">
          <mxGeometry width="50" height="50" relative="1" as="geometry">
            <mxPoint x="260" y="640" as="sourcePoint" />
            <mxPoint x="660" y="480" as="targetPoint" />
            <Array as="points">
              <mxPoint x="500" y="630" />
            </Array>
          </mxGeometry>
        </mxCell>
        <mxCell id="KLKRiOaOqkj03--vke8t-115" value="" style="endArrow=none;html=1;rounded=0;" parent="1" target="KLKRiOaOqkj03--vke8t-40" edge="1">
          <mxGeometry width="50" height="50" relative="1" as="geometry">
            <mxPoint x="260" y="640" as="sourcePoint" />
            <mxPoint x="660" y="480" as="targetPoint" />
            <Array as="points">
              <mxPoint x="580" y="600" />
            </Array>
          </mxGeometry>
        </mxCell>
        <mxCell id="KLKRiOaOqkj03--vke8t-117" value="" style="endArrow=none;html=1;rounded=0;" parent="1" target="KLKRiOaOqkj03--vke8t-31" edge="1">
          <mxGeometry width="50" height="50" relative="1" as="geometry">
            <mxPoint x="270" y="640" as="sourcePoint" />
            <mxPoint x="660" y="480" as="targetPoint" />
            <Array as="points">
              <mxPoint x="520" y="530" />
              <mxPoint x="590" y="480" />
              <mxPoint x="670" y="420" />
              <mxPoint x="730" y="370" />
            </Array>
          </mxGeometry>
        </mxCell>
        <mxCell id="KLKRiOaOqkj03--vke8t-119" value="" style="endArrow=none;html=1;rounded=0;exitX=0.367;exitY=0.992;exitDx=0;exitDy=0;exitPerimeter=0;" parent="1" source="KLKRiOaOqkj03--vke8t-29" edge="1">
          <mxGeometry width="50" height="50" relative="1" as="geometry">
            <mxPoint x="650" y="530" as="sourcePoint" />
            <mxPoint x="270" y="640" as="targetPoint" />
            <Array as="points">
              <mxPoint x="660" y="440" />
              <mxPoint x="580" y="520" />
            </Array>
          </mxGeometry>
        </mxCell>
        <mxCell id="KLKRiOaOqkj03--vke8t-120" value="" style="endArrow=none;html=1;rounded=0;exitX=0.5;exitY=0;exitDx=0;exitDy=0;" parent="1" source="KLKRiOaOqkj03--vke8t-30" edge="1">
          <mxGeometry width="50" height="50" relative="1" as="geometry">
            <mxPoint x="1175" y="50" as="sourcePoint" />
            <mxPoint x="1225" as="targetPoint" />
          </mxGeometry>
        </mxCell>
        <mxCell id="KLKRiOaOqkj03--vke8t-121" value="" style="endArrow=none;html=1;rounded=0;exitX=0;exitY=0.3333333333333333;exitDx=0;exitDy=0;exitPerimeter=0;" parent="1" source="KLKRiOaOqkj03--vke8t-55" target="KLKRiOaOqkj03--vke8t-36" edge="1">
          <mxGeometry width="50" height="50" relative="1" as="geometry">
            <mxPoint x="1060" y="290" as="sourcePoint" />
            <mxPoint x="1110" y="240" as="targetPoint" />
          </mxGeometry>
        </mxCell>
        <mxCell id="KLKRiOaOqkj03--vke8t-122" value="" style="endArrow=none;html=1;rounded=0;exitX=1;exitY=1;exitDx=0;exitDy=0;entryX=0;entryY=0.3333333333333333;entryDx=0;entryDy=0;entryPerimeter=0;" parent="1" source="KLKRiOaOqkj03--vke8t-42" target="KLKRiOaOqkj03--vke8t-58" edge="1">
          <mxGeometry width="50" height="50" relative="1" as="geometry">
            <mxPoint x="1020" y="290" as="sourcePoint" />
            <mxPoint x="1070" y="240" as="targetPoint" />
          </mxGeometry>
        </mxCell>
        <mxCell id="KLKRiOaOqkj03--vke8t-123" value="" style="endArrow=none;html=1;rounded=0;entryX=0;entryY=0.3333333333333333;entryDx=0;entryDy=0;entryPerimeter=0;" parent="1" edge="1">
          <mxGeometry width="50" height="50" relative="1" as="geometry">
            <mxPoint x="974.0319583529656" y="263.608463405139" as="sourcePoint" />
            <mxPoint x="1240" y="177.66666666666674" as="targetPoint" />
          </mxGeometry>
        </mxCell>
        <mxCell id="KLKRiOaOqkj03--vke8t-124" value="" style="endArrow=none;html=1;rounded=0;exitX=0.5;exitY=0;exitDx=0;exitDy=0;" parent="1" source="KLKRiOaOqkj03--vke8t-40" edge="1">
          <mxGeometry width="50" height="50" relative="1" as="geometry">
            <mxPoint x="790" y="290" as="sourcePoint" />
            <mxPoint x="1230" y="180" as="targetPoint" />
            <Array as="points">
              <mxPoint x="1100" y="370" />
            </Array>
          </mxGeometry>
        </mxCell>
        <mxCell id="KLKRiOaOqkj03--vke8t-125" value="" style="endArrow=none;html=1;rounded=0;" parent="1" edge="1">
          <mxGeometry width="50" height="50" relative="1" as="geometry">
            <mxPoint x="860" y="580" as="sourcePoint" />
            <mxPoint x="1240" y="180" as="targetPoint" />
            <Array as="points">
              <mxPoint x="1000" y="510" />
              <mxPoint x="1070" y="340" />
            </Array>
          </mxGeometry>
        </mxCell>
        <mxCell id="KLKRiOaOqkj03--vke8t-126" value="" style="endArrow=none;html=1;rounded=0;entryX=0;entryY=0.5;entryDx=0;entryDy=0;exitX=1;exitY=0.3333333333333333;exitDx=0;exitDy=0;exitPerimeter=0;" parent="1" source="KLKRiOaOqkj03--vke8t-50" target="KLKRiOaOqkj03--vke8t-28" edge="1">
          <mxGeometry width="50" height="50" relative="1" as="geometry">
            <mxPoint x="680" y="450" as="sourcePoint" />
            <mxPoint x="730" y="400" as="targetPoint" />
          </mxGeometry>
        </mxCell>
        <mxCell id="KLKRiOaOqkj03--vke8t-127" value="" style="endArrow=none;html=1;rounded=0;exitX=1;exitY=0.3333333333333333;exitDx=0;exitDy=0;exitPerimeter=0;" parent="1" source="KLKRiOaOqkj03--vke8t-50" edge="1">
          <mxGeometry width="50" height="50" relative="1" as="geometry">
            <mxPoint x="680" y="450" as="sourcePoint" />
            <mxPoint x="870" y="300" as="targetPoint" />
            <Array as="points">
              <mxPoint x="650" y="420" />
            </Array>
          </mxGeometry>
        </mxCell>
        <mxCell id="KLKRiOaOqkj03--vke8t-128" value="" style="endArrow=none;html=1;rounded=0;entryX=0;entryY=1;entryDx=0;entryDy=0;" parent="1" target="KLKRiOaOqkj03--vke8t-29" edge="1">
          <mxGeometry width="50" height="50" relative="1" as="geometry">
            <mxPoint x="270" y="450" as="sourcePoint" />
            <mxPoint x="730" y="400" as="targetPoint" />
            <Array as="points">
              <mxPoint x="410" y="480" />
              <mxPoint x="490" y="360" />
              <mxPoint x="620" y="308" />
            </Array>
          </mxGeometry>
        </mxCell>
      </root>
    </mxGraphModel>
  </diagram>
</mxfile>
